# xmcd
#
# Track frame offsets:
#	150
#	21000
#	33525
#	54600
#	72750
#	93600
#	108450
#	131700
#	143775
#	161700
#	176175
#	184425
#	193350
#	212700
#	229050
#	242400
#	257775
#	268500
#	280800
#	306450
#
# Disc length: 4186 seconds
#
# Revision: 1
# Processed by: cddbd v1.5.1PL0 Copyright (c) Steve Scherf et al.
# Submitted via: CDex 1.50Beta5
#
DISCID=38105814
DTITLE=Various Artist - ママとベビーのクラシック
DYEAR=1900
DGENRE=Music
TTITLE0=タイスの瞑想曲
TTITLE1=ゆりかごの歌
TTITLE2=シューベルトのアヴェ・マリア
TTITLE3=ノクターン　第2番
TTITLE4=G線上のアリア
TTITLE5=シューベルトの子守歌
TTITLE6=ラルゴ（オンブラ・マイ・フ）
TTITLE7=愛のあいさつ
TTITLE8=歌の翼に
TTITLE9=主よ、人の望みの喜びよ
TTITLE10=子犬のワルツ
TTITLE11=美しいロスマリン
TTITLE12=アイネ・クライネ・ナハト・ムジーク
TTITLE13=愛の喜び
TTITLE14=トロイメライ
TTITLE15=モーツァルトのメヌエット
TTITLE16=眠りの精
TTITLE17=春の歌
TTITLE18=パッヘルベルのカノン
TTITLE19=ブラームスのワルツ
EXTD=
EXTT0=
EXTT1=
EXTT2=
EXTT3=
EXTT4=
EXTT5=
EXTT6=
EXTT7=
EXTT8=
EXTT9=
EXTT10=
EXTT11=
EXTT12=
EXTT13=
EXTT14=
EXTT15=
EXTT16=
EXTT17=
EXTT18=
EXTT19=
PLAYORDER=
